<svg width="752" height="998" viewBox="0 0 752 998" fill="none" xmlns="http://www.w3.org/2000/svg">
<path fill-rule="evenodd" clip-rule="evenodd" d="M54.856 2.045C29.841 8.5 10.305 27.779 2.05302 54.153C0.503025 59.109 0.358025 89.661 0.0730253 471.5C-0.134975 751.724 0.0990276 886.416 0.805028 892.616C2.16903 904.591 5.88503 917.349 11.31 928.684C28.436 964.463 58.815 987.652 99.745 996.186C108.299 997.969 701.061 998.539 706.432 996.769C708.842 995.975 711.138 994.229 712.569 992.102C714.792 988.8 714.856 988.037 714.856 965C714.856 941.97 714.791 941.199 712.571 937.898C711.266 935.956 708.801 933.988 706.821 933.306C704.168 932.393 633.819 932.1 406.711 932.056C114.803 932.001 109.965 931.969 103.711 930.036C81.09 923.047 65.808 902.92 65.88 880.212C65.911 870.563 67.118 865.255 71.16 857C75.383 848.375 85.369 838.347 93.915 834.15C107.24 827.607 85.753 828.036 400.446 828.017C682.524 828 686.647 827.972 694.446 826.014C709.684 822.187 723.693 813.356 734.464 800.785C739.563 794.834 746.959 780.524 749.6 771.5C751.257 765.838 751.372 746.032 751.642 419.5C751.846 172.603 751.613 71.065 750.83 65C746.796 33.761 724.086 8.363 694.159 1.621C688.388 0.322 680.992 0 656.859 0C624.52 0 622.476 0.289 619.636 5.26C618.618 7.041 618.254 38.086 617.856 156.831C617.366 303.197 617.317 306.19 615.415 307.581C614.347 308.361 612.388 309 611.061 309C609.481 309 597.137 300.532 575.346 284.5C553.41 268.362 541.215 260 539.615 260C538.016 260 525.8 268.369 503.856 284.5C483.902 299.168 469.634 309 468.302 309C467.079 309 465.015 308.14 463.717 307.088L461.356 305.177L460.856 155.506L460.356 5.836L457.09 2.918L453.824 0L258.09 0.0550003C67.887 0.109 62.144 0.165 54.856 2.045Z" fill="black"/>
</svg>
